<svg xmlns="http://www.w3.org/2000/svg" viewBox="0 0 85.09 111.83"><defs><style>.cls-1{fill:#f56;}</style></defs><title>Asset 3</title><g id="Layer_2" data-name="Layer 2"><g id="Layer_1-2" data-name="Layer 1"><circle class="cls-1" cx="17.04" cy="11.33" r="11.33"/><path class="cls-1" d="M0,50.47,22.85,47.1s3.74.12,4.55-5.06l4-15.85s2.25-3.37,6.3-.94L84.09,52s2.49,2.06-.38,3.5l-36.14,19s-2.87,1.12,5,12.42l14,19.41s.13,2.19-5.24,2.94l-17.54,2.49H42.55L56.37,105s1.25-.56-1-3.56L35,75.38s-1.31-2.06,1.62-3.44L64.14,52.81s1.37-1.25-2.12-3L37.11,36.49s-2.21-1.13-2.68,2.84L32.15,52.87a2.28,2.28,0,0,1-1.47,1.25c-1,.22-10.64-1.06-10.64-1.06Z"/></g></g></svg>