<svg xmlns="http://www.w3.org/2000/svg" viewBox="0 0 66.71 66.71"><defs><style>.cls-1{fill:#414547;}.cls-2{fill:#a0a29e;}.cls-3{fill:#fff;}.cls-4{fill:none;stroke:#414547;}.cls-4,.cls-6{stroke-miterlimit:10;}.cls-5,.cls-6{fill:#2e3436;}.cls-6{stroke:#fff;}</style></defs><title>Asset 2</title><g id="Layer_2" data-name="Layer 2"><g id="Layer_1-2" data-name="Layer 1"><circle class="cls-1" cx="33.36" cy="33.36" r="33.36"/><circle class="cls-2" cx="33.36" cy="33.36" r="30.88"/><circle class="cls-3" cx="33.36" cy="33.36" r="28.62"/><line class="cls-4" x1="33.36" y1="33.36" x2="33.36" y2="4.17"/><line class="cls-4" x1="33.36" y1="33.36" x2="27.62" y2="4.73"/><line class="cls-4" x1="33.36" y1="33.36" x2="22.1" y2="6.42"/><line class="cls-4" x1="33.36" y1="33.36" x2="17.03" y2="9.16"/><line class="cls-4" x1="33.36" y1="33.36" x2="12.59" y2="12.84"/><line class="cls-4" x1="33.36" y1="33.36" x2="8.96" y2="17.33"/><line class="cls-4" x1="33.36" y1="33.36" x2="6.28" y2="22.44"/><line class="cls-4" x1="33.36" y1="33.36" x2="4.67" y2="27.97"/><line class="cls-4" x1="33.36" y1="33.36" x2="4.17" y2="33.72"/><line class="cls-4" x1="33.36" y1="33.36" x2="4.81" y2="39.45"/><line class="cls-4" x1="33.36" y1="33.36" x2="6.56" y2="44.94"/><line class="cls-4" x1="33.36" y1="33.36" x2="9.36" y2="49.98"/><line class="cls-4" x1="33.36" y1="33.36" x2="13.1" y2="54.38"/><line class="cls-4" x1="33.36" y1="33.36" x2="17.63" y2="57.95"/><line class="cls-4" x1="33.36" y1="33.36" x2="22.77" y2="60.56"/><line class="cls-4" x1="33.36" y1="33.36" x2="28.33" y2="62.11"/><line class="cls-4" x1="33.36" y1="33.36" x2="34.08" y2="62.54"/><line class="cls-4" x1="33.36" y1="33.36" x2="39.8" y2="61.83"/><line class="cls-4" x1="33.36" y1="33.36" x2="45.27" y2="60"/><line class="cls-4" x1="33.36" y1="33.36" x2="50.28" y2="57.14"/><line class="cls-4" x1="33.36" y1="33.36" x2="54.62" y2="53.35"/><line class="cls-4" x1="33.36" y1="33.36" x2="58.14" y2="48.78"/><line class="cls-4" x1="33.36" y1="33.36" x2="60.69" y2="43.6"/><line class="cls-4" x1="33.36" y1="33.36" x2="62.17" y2="38.03"/><line class="cls-4" x1="33.36" y1="33.36" x2="62.53" y2="32.27"/><line class="cls-4" x1="33.36" y1="33.36" x2="61.74" y2="26.56"/><line class="cls-4" x1="33.36" y1="33.36" x2="59.85" y2="21.11"/><line class="cls-4" x1="33.36" y1="33.36" x2="56.93" y2="16.14"/><line class="cls-4" x1="33.36" y1="33.36" x2="53.08" y2="11.84"/><line class="cls-4" x1="33.36" y1="33.36" x2="48.47" y2="8.38"/><line class="cls-4" x1="33.36" y1="33.36" x2="43.26" y2="5.9"/><line class="cls-4" x1="33.36" y1="33.36" x2="37.67" y2="4.49"/><circle class="cls-5" cx="33.36" cy="33.36" r="5.72"/><circle class="cls-6" cx="33.36" cy="33.36" r="4.38"/></g></g></svg>